<?xml version="1.0" encoding="utf-8"?>
<!-- Generator: Adobe Illustrator 25.0.0, SVG Export Plug-In . SVG Version: 6.00 Build 0)  -->
<svg version="1.1" id="Layer_1" xmlns="http://www.w3.org/2000/svg" xmlns:xlink="http://www.w3.org/1999/xlink" x="0px" y="0px"
	 width="1514.7px" height="476.4px" viewBox="0 0 1514.7 476.4" style="enable-background:new 0 0 1514.7 476.4;"
	 xml:space="preserve">
<style type="text/css">
	.st0{fill:#B7C3CB;}
	.st1{fill:#204F70;}
	.st2{fill:#A7B7C1;}
	.st3{fill:none;stroke:#221E20;stroke-width:0.566;stroke-miterlimit:10;}
	.st4{fill:#F29121;}
</style>
<g id="display_x5F_01">
	<g>
		<path class="st0" d="M223.2,351.6H96.4c-15.7,0-28.3-12.7-28.3-28.3V96.5c0-15.7,12.7-28.3,28.3-28.3h126.8
			c15.7,0,28.3,12.7,28.3,28.3v226.8C251.5,338.9,238.8,351.6,223.2,351.6"/>
		<rect x="146.3" y="105.3" class="st1" width="26.6" height="27.9"/>
		<path class="st1" d="M107.3,133.1h25.1v-27.9h-13.8c-6.3,0-11.3,5.1-11.3,11.3V133.1z"/>
		<rect x="146.3" y="151" class="st2" width="26.6" height="29"/>
		<rect x="107.3" y="244.7" class="st2" width="25.1" height="29"/>
		<rect x="146.3" y="197.8" class="st1" width="26.6" height="29"/>
		<rect x="146.3" y="244.7" class="st2" width="26.6" height="29"/>
		<rect x="146.3" y="291.5" class="st1" width="26.6" height="27.9"/>
		<path class="st1" d="M132.4,319.4v-27.9h-25.1V308c0,6.3,5.1,11.3,11.3,11.3H132.4z"/>
		<rect x="107.3" y="151" class="st2" width="25.1" height="29"/>
		<rect x="107.3" y="197.8" class="st2" width="25.1" height="29"/>
		<path class="st1" d="M212.2,133.1h-25.5v-27.9h14.1c6.3,0,11.3,5.1,11.3,11.3V133.1z"/>
		<rect x="186.8" y="197.8" class="st1" width="25.5" height="29"/>
		<rect x="186.8" y="151" class="st1" width="25.5" height="29"/>
		<path class="st1" d="M186.8,319.4v-27.9h25.5V308c0,6.3-5.1,11.3-11.3,11.3H186.8z"/>
		<rect x="186.8" y="244.7" class="st1" width="25.5" height="29"/>
		<path class="st3" d="M223.2,56.8H96.4c-21.9,0-39.7,17.8-39.7,39.7v226.8c0,21.9,17.8,39.7,39.7,39.7h15.2v56.7H208V363h15.2
			c21.9,0,39.7-17.8,39.7-39.7V96.5C262.8,74.6,245.1,56.8,223.2,56.8z"/>
		<polygon class="st4" points="118.6,404.6 118.6,401.9 118.6,351.9 117.7,351.9 116,351.9 115.8,351.9 115.8,401.9 115.8,404.6 
			115.8,419.6 118.6,419.6 		"/>
		<polygon class="st4" points="173.3,351.9 172.5,351.9 172.5,419.6 172.5,419.6 175.4,419.6 175.4,419.6 175.4,351.9 175,351.9 		
			"/>
		<polygon class="st4" points="167.4,351.9 166.9,351.9 166.9,419.6 169.7,419.6 169.7,351.9 169.1,351.9 		"/>
		<polygon class="st4" points="178.8,351.9 178.2,351.9 178.2,419.6 181,419.6 181,351.9 180.5,351.9 		"/>
		<polygon class="st4" points="190.2,351.9 189.5,351.9 189.5,419.6 189.5,419.6 192.4,419.6 192.4,419.6 192.4,351.9 191.9,351.9 
					"/>
		<polygon class="st4" points="161.9,351.9 161.2,351.9 161.2,419.6 164,419.6 164,351.9 163.6,351.9 		"/>
		<polygon class="st4" points="195.7,351.9 195.2,351.9 195.2,419.6 198,419.6 198,351.9 197.4,351.9 		"/>
		<polygon class="st4" points="184.5,351.9 183.9,351.9 183.9,419.6 186.7,419.6 186.7,419.6 186.7,351.9 186.2,351.9 		"/>
		<polygon class="st4" points="127.7,351.9 127.2,351.9 127.2,419.6 130,419.6 130,351.9 129.4,351.9 		"/>
		<polygon class="st4" points="122,351.9 121.5,351.9 121.5,419.6 124.3,419.6 124.3,351.9 123.7,351.9 		"/>
		<polygon class="st4" points="201.7,351.9 200.9,351.9 200.9,419.6 203.7,419.6 203.7,419.6 203.7,351.9 203.4,351.9 		"/>
		<polygon class="st4" points="144.5,351.9 144.2,351.9 144.2,419.6 147,419.6 147,351.9 146.2,351.9 		"/>
		<polygon class="st4" points="150.5,351.6 150.5,351.9 149.8,351.9 149.8,419.6 149.8,419.6 149.8,419.6 152.7,419.6 152.7,419.6 
			152.7,351.9 152.1,351.9 		"/>
		<polygon class="st4" points="133.5,351.9 132.8,351.9 132.8,419.6 135.7,419.6 135.7,351.9 135.2,351.9 		"/>
		<polygon class="st4" points="156.1,351.9 155.5,351.9 155.5,419.6 158.3,419.6 158.3,351.9 157.8,351.9 		"/>
		<polygon class="st4" points="139.1,351.9 138.5,351.9 138.5,419.6 141.3,419.6 141.3,351.9 140.8,351.9 		"/>
	</g>
</g>
<g id="display_x5F_02">
	<g id="XMLID_1_">
		<g>
			<path class="st0" d="M500.8,96.5v226.8c0,15.7-12.7,28.4-28.4,28.4h-19.4h-5.7h-5.7H436h-5.7h-5.7H419h-5.7h-5.7H402h-5.7h-5.7
				H385h-5.7h-5.7H368h-22.3c-15.7,0-28.3-12.7-28.3-28.4V96.5c0-15.7,12.7-28.4,28.3-28.4h126.8C488.1,68.1,500.8,80.8,500.8,96.5z
				 M462.5,271.5v-24.1l-17-17v24.1L462.5,271.5z M462.5,235.4v-58.6l-17,17v24.6L462.5,235.4z M462.5,164.8v-24.1l-17,17v24.1
				L462.5,164.8z M445.4,145.7l16.1-16.1c-3.2-12.6-14.5-21.4-27.5-21.4h-50c-13,0-24.3,8.8-27.5,21.4l16.1,16.1v-9.2
				c0-6.3,5.1-11.3,11.3-11.3h50c6.3,0,11.3,5.1,11.3,11.3V145.7z M461.6,282.6l-16.1-16.1v9.2c0,6.3-5.1,11.3-11.3,11.3h-50
				c-6.2,0-11.3-5.1-11.3-11.3v-9.2l-16.1,16.1c3.2,12.6,14.5,21.4,27.5,21.4h50C447.1,304,458.4,295.2,461.6,282.6z M436.9,246
				v-24.1l-9.6-9.6H427l-11.9,11.9L436.9,246z M436.9,190.3v-24.1L415.1,188l12,12L436.9,190.3z M409.1,218.1l12-12l-12-12l-12,12
				L409.1,218.1z M417.6,278.5v-39.9l-8.5-8.5l-8.5,8.5v39.9H417.6z M417.6,173.5v-39.9h-17v39.9l8.5,8.5L417.6,173.5z M403.1,188
				l-21.8-21.8v24.1l9.8,9.8L403.1,188z M381.3,246l21.8-21.8l-11.9-11.9h-0.3l-9.6,9.6V246z M372.7,254.5v-24.1l-17,17v24.1
				L372.7,254.5z M372.7,218.4v-24.6l-17-17v58.6L372.7,218.4z M372.7,181.8v-24.1l-17-17v24.1L372.7,181.8z"/>
			<polygon class="st1" points="462.5,247.4 462.5,271.5 445.4,254.5 445.4,230.4 			"/>
			<polygon class="st2" points="462.5,176.8 462.5,235.4 445.4,218.4 445.4,193.8 			"/>
			<polygon class="st1" points="462.5,140.7 462.5,164.8 445.4,181.8 445.4,157.7 			"/>
			<path class="st1" d="M461.6,129.6l-16.1,16.1v-9.2c0-6.3-5.1-11.3-11.3-11.3h-50c-6.2,0-11.3,5.1-11.3,11.3v9.2l-16.1-16.1
				c3.2-12.6,14.5-21.4,27.5-21.4h50C447.1,108.1,458.4,116.9,461.6,129.6z"/>
			<path class="st1" d="M445.4,266.5l16.1,16.1c-3.2,12.6-14.5,21.4-27.5,21.4h-50c-13,0-24.3-8.8-27.5-21.4l16.1-16.1v9.2
				c0,6.3,5.1,11.3,11.3,11.3h50c6.3,0,11.3-5.1,11.3-11.3V266.5z"/>
			<polygon class="st4" points="453.1,351.9 453.1,419.6 450.2,419.6 450.2,351.9 451,351.9 452.7,351.9 			"/>
			<polygon class="st4" points="447.4,351.9 447.4,419.6 444.6,419.6 444.6,351.9 445.1,351.9 446.8,351.9 			"/>
			<polygon class="st4" points="441.7,351.9 441.7,419.6 438.9,419.6 438.9,351.9 439.6,351.9 441.3,351.9 			"/>
			<polygon class="st1" points="436.9,221.9 436.9,246 415.1,224.1 427,212.3 427.3,212.3 			"/>
			<polygon class="st1" points="436.9,166.2 436.9,190.3 427.1,200.1 415.1,188 			"/>
			<polygon class="st4" points="436,351.9 436,419.6 433.2,419.6 433.2,351.9 433.8,351.9 435.5,351.9 			"/>
			<polygon class="st4" points="430.4,351.9 430.4,419.6 427.5,419.6 427.5,351.9 428.1,351.9 429.8,351.9 			"/>
			<polygon class="st4" points="424.7,351.9 424.7,419.6 421.9,419.6 421.9,351.9 422.6,351.9 424.3,351.9 			"/>
			
				<rect x="400.6" y="197.6" transform="matrix(0.7071 -0.7071 0.7071 0.7071 -25.9001 349.6342)" class="st1" width="17" height="17"/>
			<polygon class="st4" points="419,351.9 419,419.6 416.2,419.6 416.2,351.9 416.8,351.9 418.5,351.9 			"/>
			<polygon class="st2" points="417.6,238.6 417.6,278.5 400.6,278.5 400.6,238.6 409.1,230.1 			"/>
			<polygon class="st2" points="417.6,133.6 417.6,173.5 409.1,182 400.6,173.5 400.6,133.6 			"/>
			<polygon class="st4" points="413.4,351.9 413.4,419.6 410.5,419.6 410.5,351.9 411.2,351.9 412.9,351.9 			"/>
			<polygon class="st4" points="407.7,351.9 407.7,419.6 404.8,419.6 404.8,351.9 405.4,351.9 407.1,351.9 			"/>
			<polygon class="st2" points="381.3,166.2 403.1,188 391.1,200.1 381.3,190.3 			"/>
			<polygon class="st2" points="403.1,224.1 381.3,246 381.3,221.9 390.9,212.3 391.2,212.3 			"/>
			<rect x="399.2" y="351.9" class="st4" width="2.8" height="67.7"/>
			<polygon class="st4" points="396.3,351.9 396.3,419.6 393.5,419.6 393.5,351.9 393.8,351.9 395.5,351.9 			"/>
			<polygon class="st4" points="390.7,351.9 390.7,419.6 387.8,419.6 387.8,351.9 388.4,351.9 390.1,351.9 			"/>
			<polygon class="st4" points="385,351.9 385,419.6 382.2,419.6 382.2,351.9 382.9,351.9 384.6,351.9 			"/>
			<polygon class="st4" points="379.3,351.9 379.3,419.6 376.5,419.6 376.5,351.9 377,351.9 378.7,351.9 			"/>
			<polygon class="st4" points="373.7,351.9 373.7,419.6 370.8,419.6 370.8,351.9 371.4,351.9 373.1,351.9 			"/>
			<polygon class="st2" points="372.7,230.4 372.7,254.5 355.7,271.5 355.7,247.4 			"/>
			<polygon class="st2" points="372.7,193.8 372.7,218.4 355.7,235.4 355.7,176.8 			"/>
			<polygon class="st2" points="372.7,157.7 372.7,181.8 355.7,164.8 355.7,140.7 			"/>
			<polygon class="st4" points="368,404.6 368,419.6 365.1,419.6 365.1,404.6 365.1,401.9 365.1,351.9 365.3,351.9 367,351.9 
				368,351.9 368,401.9 			"/>
		</g>
		<g>
			<line class="st3" x1="447.4" y1="419.6" x2="450.2" y2="419.6"/>
			<line class="st3" x1="441.7" y1="419.6" x2="444.6" y2="419.6"/>
			<line class="st3" x1="436" y1="419.6" x2="438.9" y2="419.6"/>
			<line class="st3" x1="430.4" y1="419.6" x2="433.2" y2="419.6"/>
			<line class="st3" x1="424.7" y1="419.6" x2="427.5" y2="419.6"/>
			<line class="st3" x1="419" y1="419.6" x2="421.9" y2="419.6"/>
			<line class="st3" x1="413.4" y1="419.6" x2="416.2" y2="419.6"/>
			<line class="st3" x1="407.7" y1="419.6" x2="410.5" y2="419.6"/>
			<line class="st3" x1="402" y1="419.6" x2="404.8" y2="419.6"/>
			<line class="st3" x1="396.3" y1="419.6" x2="399.2" y2="419.6"/>
			<line class="st3" x1="390.7" y1="419.6" x2="393.5" y2="419.6"/>
			<line class="st3" x1="385" y1="419.6" x2="387.8" y2="419.6"/>
			<line class="st3" x1="379.3" y1="419.6" x2="382.2" y2="419.6"/>
			<line class="st3" x1="373.7" y1="419.6" x2="376.5" y2="419.6"/>
			<line class="st3" x1="368" y1="419.6" x2="370.8" y2="419.6"/>
			<path class="st3" d="M453.1,419.6h4.2v-56.7h15.2c21.9,0,39.7-17.8,39.7-39.7V96.5c0-21.9-17.8-39.7-39.7-39.7H345.7
				c-21.9,0-39.7,17.8-39.7,39.7v226.8c0,21.9,17.8,39.7,39.7,39.7h15.2v56.7h4.2"/>
		</g>
	</g>
</g>
<g id="display_x5F_03">
	<g id="XMLID_2_">
		<g>
			<path class="st0" d="M744.7,96.5v226.8c0,15.7-12.7,28.4-28.3,28.4h-22.3h-5.7h-5.7h-7.9h-3.5h-5.7H660h-5.7h-5.7H643h-5.5h-5.7
				h-5.7h-5.7h-5.7h-25.1c-15.7,0-28.4-12.7-28.4-28.4V96.5c0-15.7,12.7-28.4,28.4-28.4h126.8C732,68.1,744.7,80.8,744.7,96.5z
				 M703.3,119.3c-0.1-1.6-0.2-3.2-0.4-4.8c-0.4-2.5-1-5-1.9-7.4c-1.7-4.5-4.3-8.4-7.7-11.8c-0.7-0.7-1.9-0.7-2.7,0.1
				c-0.7,0.7-0.7,1.9,0,2.6c0.2,0.2,0.4,0.4,0.6,0.6c2.6,2.7,4.6,5.8,6,9.2c1.6,3.9,2.4,8.1,2.2,12.3c-0.1,2.1-0.3,4.2-0.8,6.2
				c-1.3,5.4-4,10.1-7.9,14.1c-0.8,0.9-0.9,2-0.1,2.8c0.8,0.8,2,0.7,2.8-0.1c2.3-2.4,4.2-5,5.8-7.9
				C701.9,130.3,703.2,125,703.3,119.3z M701,281v-35.4c-0.1,0.1-0.2,0.1-0.3,0.2c-1.4,0.9-2.7,1.6-4,2.2c-2.3,1.1-5.1,2-8,2.7
				l-0.4,0.1c-2.9,0.7-6,1.2-9.4,1.6l-0.7,0.1v21.9c0,3.3-0.8,6.6-2.4,9.5l12.7,24.2C696.4,301.3,701,291.4,701,281z M701,220.4
				v-28.9c0-10.7-4.8-20.7-13.1-27.5l-12.4,24.3c1.7,3,2.7,6.4,2.7,9.9v15.2l0.7,0.1c3.6,0.4,6.8,1,9.8,1.7c3.1,0.8,5.7,1.6,8.1,2.7
				c1.3,0.6,2.6,1.3,4,2.2C700.8,220.3,700.9,220.3,701,220.4z M698.3,236.3c1-1,1.8-2.1,2.3-3.3c-0.6-1.2-1.4-2.3-2.3-3.3
				c-0.6-0.6-1.4-1.3-2.3-1.8c-0.9-0.6-1.9-1.1-2.8-1.5c-1.9-0.9-4-1.6-6.6-2.2c-2.6-0.6-5.5-1.1-8.8-1.5v20.8
				c3.1-0.4,5.9-0.8,8.4-1.4l0.4-0.1c2.5-0.6,4.7-1.3,6.6-2.2c0.9-0.4,1.8-0.9,2.8-1.5C696.9,237.6,697.7,236.9,698.3,236.3z
				 M688.3,118.5c0-1.3-0.3-3.4-0.8-5.4c-1.1-4.4-3.3-8.3-6.6-11.5c-0.6-0.6-1.4-0.7-2.1-0.4c-0.7,0.4-1.1,0.9-1.2,1.8
				c0,0.6,0.3,1.1,0.8,1.6c2,2,3.5,4.4,4.5,7c1.3,3.4,1.8,6.9,1.3,10.5c-0.3,2.7-1.2,5.2-2.4,7.6c-1,1.8-2.2,3.4-3.6,4.8
				c-0.7,0.8-0.7,2,0.1,2.7c0.8,0.7,1.9,0.7,2.7-0.1c0.8-0.9,1.7-1.8,2.4-2.8C686.6,129.8,688.3,124.8,688.3,118.5z M680.4,313.2
				l-11.6-22c-3.1,1.9-6.7,3.1-10.6,3.1h-11.1c-11,0-19.9-8.9-19.9-19.8v-2.5l-22.3,6.5v2.7c0,19.5,15.9,35.4,35.4,35.4h25.1
				C670.8,316.5,675.8,315.4,680.4,313.2z M668.5,181.3l11.3-22.2c-4.5-2-9.3-3-14.2-3h-25.1c-18.9,0-34.7,15.3-35.4,34.1l22.4,6.7
				c0.7-10.3,9.3-18.5,19.8-18.5h11.1C662,178.5,665.5,179.5,668.5,181.3z M673.3,119.3c-0.2-1.2-0.3-2.5-0.6-3.7
				c-0.6-3-2.1-5.6-4.3-7.8c-0.3-0.3-0.8-0.5-1.3-0.6c-0.8-0.1-1.5,0.4-1.9,1.1c-0.4,0.8-0.2,1.6,0.5,2.3c1.9,2,3.1,4.3,3.5,7.1
				c0.3,2.4,0,4.6-0.9,6.8c-0.6,1.5-1.6,2.8-2.7,4c-0.7,0.8-0.6,2,0.2,2.7c0.8,0.7,2,0.6,2.7-0.2c0.4-0.4,0.7-0.8,1.1-1.2
				C671.9,126.7,673.1,123.2,673.3,119.3z M668.5,243.7V222l-2.2-0.1c-9.2-0.3-18.4-0.2-27.6,0.1l-2.3,0.1v21.6l2.2,0.1
				c9.2,0.3,18.4,0.2,27.6-0.1L668.5,243.7z M654.2,114.2c0.8-0.8,0.8-2.2,0-3c-0.8-0.8-2.2-0.8-3,0l-5.1,5.1l-5.1-5.1
				c-0.8-0.8-2.2-0.8-3,0c-0.8,0.8-0.8,2.2,0,3l5.1,5.1l-5.1,5.1c-0.8,0.8-0.8,2.2,0,3c0.8,0.8,2.2,0.8,3,0l5.1-5.1l5.1,5.1
				c0.8,0.8,2.2,0.8,3,0c0.8-0.8,0.8-2.2,0-3l-5.1-5.1L654.2,114.2z M627.3,262.1v-9.6l-1.3-0.2c-3.4-0.4-6.4-0.9-9.2-1.6
				c-3.1-0.7-5.7-1.6-8.1-2.7c-1.2-0.6-2.5-1.2-3.7-2v22.6L627.3,262.1z M627.3,213.5v-6.7l-22.3-6.7v20c1.3-0.8,2.5-1.5,3.8-2
				c2.3-1.1,5.1-2,8.1-2.7c2.8-0.7,5.8-1.2,9.2-1.6L627.3,213.5z M627.1,137.8c0-12.4,0-24.8,0-37.2c0-0.2,0-0.4,0-0.6
				c-0.1-0.5-1.9-0.1-2.4,0.2c-4.7,3.5-9.4,7-14,10.5c-0.3,0.2-0.6,0.3-1,0.3c-1.1,0-2.8,0-4.3,0c-1.5,0-2.7,1.2-2.7,2.7v11.5
				c0,1.5,1.2,2.7,2.7,2.7s3.3,0,4.4,0c0.3,0,0.5,0.1,0.8,0.2c1.3,0.9,2.6,1.9,3.9,2.9c3.1,2.3,6.1,4.6,9.2,6.8
				c0.7,0.5,3.3,1.5,3.4,0.7C627.1,138.2,627.1,138,627.1,137.8z M627.1,243.3v-20.6c-3.1,0.4-5.8,0.8-8.2,1.4s-4.7,1.3-6.6,2.2
				c-0.9,0.4-1.8,0.9-2.8,1.5c-0.9,0.6-1.7,1.2-2.3,1.8c-1,1-1.8,2.1-2.3,3.3c0.6,1.2,1.4,2.3,2.3,3.3c0.6,0.6,1.4,1.3,2.3,1.8
				c0.9,0.6,1.9,1.1,2.8,1.5c1.9,0.9,4,1.6,6.6,2.2C621.3,242.5,624,243,627.1,243.3z"/>
			<path class="st1" d="M702.9,114.5c0.2,1.6,0.3,3.2,0.4,4.8c-0.1,5.7-1.4,11-4.1,16c-1.5,2.9-3.5,5.5-5.8,7.9
				c-0.8,0.8-2,0.9-2.8,0.1c-0.8-0.8-0.8-1.9,0.1-2.8c3.9-4,6.5-8.7,7.9-14.1c0.5-2,0.7-4.1,0.8-6.2c0.1-4.3-0.6-8.4-2.2-12.3
				c-1.4-3.5-3.4-6.5-6-9.2c-0.2-0.2-0.4-0.4-0.6-0.6c-0.7-0.8-0.7-1.9,0-2.6c0.7-0.7,1.9-0.8,2.7-0.1c3.4,3.4,6,7.3,7.7,11.8
				C701.9,109.5,702.6,112,702.9,114.5z"/>
			<path class="st1" d="M701,245.6V281c0,10.4-4.6,20.2-12.6,27l-12.7-24.2c1.6-2.9,2.4-6.2,2.4-9.5v-21.9l0.7-0.1
				c3.5-0.4,6.5-0.9,9.4-1.6l0.4-0.1c3-0.7,5.7-1.6,8-2.7c1.3-0.6,2.6-1.3,4-2.2C700.8,245.8,700.9,245.7,701,245.6z"/>
			<path class="st1" d="M701,191.6v28.9c-0.1-0.1-0.2-0.1-0.3-0.2c-1.4-0.9-2.6-1.6-4-2.2c-2.4-1.1-5-2-8.1-2.7
				c-3-0.7-6.2-1.2-9.8-1.7l-0.7-0.1v-15.2c0-3.4-0.9-6.9-2.7-9.9l12.4-24.3C696.2,170.9,701,180.9,701,191.6z"/>
			<path class="st1" d="M700.6,233c-0.6,1.2-1.3,2.3-2.3,3.3c-0.6,0.6-1.4,1.2-2.3,1.9c-1,0.6-1.9,1.1-2.8,1.5
				c-1.9,0.9-4.1,1.6-6.6,2.2l-0.4,0.1c-2.5,0.6-5.2,1-8.4,1.4v-20.8c3.3,0.4,6.1,0.9,8.8,1.5c2.5,0.6,4.7,1.3,6.6,2.2
				c0.9,0.4,1.9,0.9,2.8,1.5c0.9,0.6,1.7,1.2,2.3,1.8C699.3,230.7,700,231.8,700.6,233z"/>
			<polygon class="st4" points="694.1,351.9 694.1,419.6 691.2,419.6 691.2,351.9 691.8,351.9 693.5,351.9 			"/>
			<polygon class="st4" points="688.4,351.9 688.4,419.6 685.5,419.6 685.5,351.9 686.3,351.9 688,351.9 			"/>
			<path class="st1" d="M687.5,113.1c0.5,2,0.8,4.1,0.8,5.4c0,6.3-1.7,11.3-4.9,15.7c-0.7,1-1.6,1.9-2.4,2.8
				c-0.8,0.8-1.9,0.8-2.7,0.1c-0.8-0.7-0.8-1.9-0.1-2.7c1.4-1.5,2.6-3,3.6-4.8c1.3-2.4,2.1-4.9,2.4-7.6c0.5-3.6,0-7.1-1.3-10.5
				c-1-2.6-2.5-5-4.5-7c-0.4-0.4-0.8-0.9-0.8-1.6c0-0.8,0.4-1.4,1.2-1.8c0.7-0.3,1.5-0.2,2.1,0.4
				C684.2,104.8,686.4,108.7,687.5,113.1z"/>
			<polygon class="st4" points="682.7,351.9 682.7,419.6 679.9,419.6 679.9,351.9 680.4,351.9 682.1,351.9 			"/>
			<path class="st1" d="M668.9,291.2l11.6,22c-4.7,2.2-9.7,3.3-14.9,3.3h-25.1c-19.5,0-35.4-15.9-35.4-35.4v-2.7l22.3-6.5v2.5
				c0,10.9,8.9,19.8,19.9,19.8h11.1C662.2,294.2,665.8,293.1,668.9,291.2z"/>
			<path class="st1" d="M679.8,159.1l-11.3,22.2c-3-1.8-6.5-2.9-10.2-2.9h-11.1c-10.5,0-19.1,8.2-19.8,18.5l-22.4-6.7
				c0.7-18.8,16.5-34.1,35.4-34.1h25.1C670.5,156.1,675.3,157.1,679.8,159.1z"/>
			<polygon class="st4" points="677,351.9 677,419.6 674.2,419.6 674.2,351.9 674.9,351.9 674.9,351.6 676.5,351.9 			"/>
			<path class="st1" d="M672.7,115.6c0.3,1.2,0.4,2.5,0.6,3.7c-0.1,3.9-1.4,7.4-3.8,10.5c-0.3,0.4-0.7,0.8-1.1,1.2
				c-0.7,0.8-1.9,0.8-2.7,0.2c-0.8-0.7-0.9-1.9-0.2-2.7c1.1-1.2,2.1-2.5,2.7-4c0.9-2.2,1.2-4.4,0.9-6.8c-0.4-2.8-1.6-5.1-3.5-7.1
				c-0.7-0.7-0.8-1.5-0.5-2.3c0.3-0.7,1.1-1.2,1.9-1.1c0.5,0.1,1,0.3,1.3,0.6C670.6,109.9,672.1,112.5,672.7,115.6z"/>
			<polygon class="st4" points="671.4,351.9 671.4,419.6 668.5,419.6 668.5,351.9 668.9,351.9 670.6,351.9 			"/>
			<path class="st1" d="M668.5,222v21.6l-2.3,0.1c-9.2,0.4-18.4,0.4-27.6,0.1l-2.2-0.1v-21.6l2.3-0.1c9.2-0.4,18.4-0.4,27.6-0.1
				L668.5,222z"/>
			<polygon class="st4" points="665.7,351.9 665.7,419.6 662.9,419.6 662.9,351.9 663.4,351.9 665.1,351.9 			"/>
			<polygon class="st4" points="660,351.9 660,419.6 657.2,419.6 657.2,351.9 657.9,351.9 659.6,351.9 			"/>
			<path class="st2" d="M654.2,111.2c0.8,0.8,0.8,2.2,0,3l-5.1,5.1l5.1,5.1c0.8,0.8,0.8,2.2,0,3c-0.8,0.8-2.2,0.8-3,0l-5.1-5.1
				l-5.1,5.1c-0.8,0.8-2.2,0.8-3,0c-0.8-0.8-0.8-2.2,0-3l5.1-5.1l-5.1-5.1c-0.8-0.8-0.8-2.2,0-3c0.8-0.8,2.2-0.8,3,0l5.1,5.1
				l5.1-5.1C652,110.4,653.4,110.4,654.2,111.2z"/>
			<polygon class="st4" points="654.4,351.9 654.4,419.6 651.5,419.6 651.5,351.9 652.1,351.9 653.8,351.9 			"/>
			<polygon class="st4" points="648.7,351.9 648.7,419.6 645.8,419.6 645.8,351.9 646.4,351.9 648.1,351.9 			"/>
			<polygon class="st4" points="643,404.6 643,419.6 640.2,419.6 640.2,404.6 640.2,401.9 640.2,351.9 640.4,351.9 642.1,351.9 
				643,351.9 643,401.9 			"/>
			<polygon class="st4" points="637.5,351.9 637.5,419.6 634.6,419.6 634.6,351.9 635.3,351.9 637,351.9 			"/>
			<polygon class="st4" points="631.8,351.9 631.8,419.6 628.9,419.6 628.9,351.9 629.5,351.9 631.2,351.9 			"/>
			<path class="st2" d="M627.3,252.5v9.6l-22.3,6.4V246c1.3,0.8,2.5,1.5,3.7,2c2.4,1.1,5,2,8.1,2.7c2.8,0.7,5.8,1.2,9.2,1.6
				L627.3,252.5z"/>
			<path class="st2" d="M627.3,206.8v6.7l-1.3,0.2c-3.4,0.4-6.4,0.9-9.2,1.6c-3,0.7-5.7,1.6-8.1,2.7c-1.2,0.5-2.5,1.2-3.8,2v-20
				L627.3,206.8z"/>
			<path class="st1" d="M627.1,100.5c0,12.4,0,24.8,0,37.2c0,0.2,0,0.4,0,0.7c-0.1,0.8-2.7-0.2-3.4-0.7c-3.1-2.3-6.2-4.5-9.2-6.8
				c-1.3-1-2.6-1.9-3.9-2.9c-0.2-0.2-0.5-0.2-0.8-0.2c-1.1,0-2.9,0-4.4,0s-2.7-1.2-2.7-2.7v-11.5c0-1.5,1.2-2.7,2.7-2.7
				c1.5,0,3.2,0,4.3,0c0.4,0,0.7-0.1,1-0.3c4.7-3.5,9.3-7,14-10.5c0.4-0.3,2.3-0.7,2.4-0.2C627.1,100.1,627.1,100.3,627.1,100.5z"/>
			<path class="st2" d="M627.1,222.7v20.6c-3.1-0.4-5.7-0.8-8.2-1.4c-2.5-0.6-4.7-1.3-6.6-2.2c-0.9-0.4-1.9-0.9-2.8-1.5
				c-0.9-0.6-1.7-1.2-2.3-1.8c-1-1-1.7-2.1-2.3-3.3c0.6-1.2,1.3-2.3,2.3-3.3c0.6-0.6,1.4-1.2,2.3-1.8c1-0.6,1.9-1.1,2.8-1.5
				c1.9-0.9,4.1-1.6,6.6-2.2S624,223.1,627.1,222.7z"/>
			<polygon class="st4" points="626.1,351.9 626.1,419.6 623.3,419.6 623.3,351.9 623.8,351.9 625.5,351.9 			"/>
			<polygon class="st4" points="620.4,404.6 620.4,419.6 617.6,419.6 617.6,404.6 617.6,401.9 617.6,351.9 617.8,351.9 619.5,351.9 
				620.4,351.9 620.4,401.9 			"/>
			<polygon class="st4" points="614.8,404.6 614.8,419.6 611.9,419.6 611.9,404.6 611.9,401.9 611.9,351.9 612.1,351.9 613.8,351.9 
				614.8,351.9 614.8,401.9 			"/>
		</g>
		<g>
			<line class="st3" x1="688.4" y1="419.6" x2="691.2" y2="419.6"/>
			<line class="st3" x1="682.7" y1="419.6" x2="685.5" y2="419.6"/>
			<line class="st3" x1="677" y1="419.6" x2="679.9" y2="419.6"/>
			<line class="st3" x1="671.4" y1="419.6" x2="674.2" y2="419.6"/>
			<line class="st3" x1="665.7" y1="419.6" x2="668.5" y2="419.6"/>
			<line class="st3" x1="660" y1="419.6" x2="662.9" y2="419.6"/>
			<line class="st3" x1="654.4" y1="419.6" x2="657.2" y2="419.6"/>
			<line class="st3" x1="648.7" y1="419.6" x2="651.5" y2="419.6"/>
			<line class="st3" x1="643" y1="419.6" x2="645.8" y2="419.6"/>
			<line class="st3" x1="637.5" y1="419.6" x2="640.2" y2="419.6"/>
			<line class="st3" x1="631.8" y1="419.6" x2="634.6" y2="419.6"/>
			<line class="st3" x1="626.1" y1="419.6" x2="628.9" y2="419.6"/>
			<line class="st3" x1="620.4" y1="419.6" x2="623.3" y2="419.6"/>
			<line class="st3" x1="614.8" y1="419.6" x2="617.6" y2="419.6"/>
			<path class="st3" d="M694.1,419.6h4.2v-56.7h18.1c21.9,0,39.7-17.8,39.7-39.7V96.5c0-21.9-17.8-39.7-39.7-39.7H589.6
				c-21.9,0-39.7,17.8-39.7,39.7v226.8c0,21.9,17.8,39.7,39.7,39.7h18.1v56.7h4.3"/>
		</g>
	</g>
</g>
<g id="display_x5F_04">
	<g id="XMLID_3_">
		<g>
			<path class="st0" d="M1093.5,96.4v226.8c0,15.7-12.7,28.4-28.3,28.4h-69.4h-5.7h-5.7h-5.7H973h-5.7h-5.7H956h-5.7h-5.7H939h-5.7
				h-5.7H922h-5.7h-5.7h-72.3c-15.6,0-28.3-12.7-28.3-28.4V96.4c0-15.7,12.7-28.3,28.3-28.3h226.8
				C1080.8,68,1093.5,80.7,1093.5,96.4z M1064.5,156.1c0.7-4.9-0.4-9.7-3.1-13.4l-14.9,14.7l-5.2,37.2l17,5.9L1064.5,156.1z
				 M1049.4,263.4l7.6-53.9l-17-5.9l-11.3,80.1C1038.9,282.4,1048,273.8,1049.4,263.4z M1039.1,153.5l16.2-16
				c-2.5-1.2-5.3-1.9-8.3-1.9H1006c-7.9,0-15.6,4.5-20,11.5l18.2,6.4H1039.1z M1029.2,219.3l2.6-18.5l-27.4-10.6l-2.6,18.5
				L1029.2,219.3z M1020.1,283.9l2.5-17.9h-37.5l2.4-17.2l-17-6l-2.9,20.6c-1.6,11.3,6.3,20.4,17.5,20.4H1020.1z M993.6,205.8
				l6.2-44.4l-17-6c0,0.2-0.1,0.4-0.1,0.6l-6.2,43.8L993.6,205.8z M988.9,239.7l3.5-24.9l-17-6l-3.5,24.9L988.9,239.7z M970.3,156.1
				c0.7-4.9-0.4-9.7-3.1-13.4l-14.9,14.7l-5.2,37.2l17,5.9L970.3,156.1z M955.2,263.4l7.6-53.9l-17-5.9l-11.2,80.1
				C944.7,282.4,953.7,273.8,955.2,263.4z M944.8,153.5l16.2-16c-2.5-1.2-5.3-1.9-8.3-1.9h-40.9c-7.9,0-15.6,4.5-20,11.5l18.2,6.4
				H944.8z M935,219.3l2.6-18.5l-27.5-10.6l-2.6,18.5L935,219.3z M925.9,283.9l2.5-17.9h-37.5l2.4-17.2l-17-6l-2.9,20.6
				c-1.6,11.3,6.3,20.4,17.5,20.4H925.9z M899.4,205.8l6.2-44.4l-17-6c0,0.2-0.1,0.4-0.1,0.6l-6.2,43.8L899.4,205.8z M894.6,239.7
				l3.5-24.9l-17-6l-3.5,24.9L894.6,239.7z M876.1,155.6c0.7-4.7-0.3-9.3-2.9-12.9l-15.2,15l-5.2,37l17,5.9L876.1,155.6z M861,263
				l7.5-53.6l-17-5.9l-11.3,80.1C850.7,282.1,859.5,273.3,861,263z M850.3,153.5l16.4-16.2c-2.3-1.1-4.9-1.6-7.7-1.6h-11.7
				l-2.5,17.9H850.3z"/>
			<path class="st1" d="M1061.4,142.7c2.7,3.7,3.8,8.4,3.1,13.4l-6.2,44.5l-17-5.9l5.2-37.2L1061.4,142.7z"/>
			<path class="st1" d="M1057,209.6l-7.6,53.9c-1.5,10.4-10.5,19-20.7,20.3l11.3-80.1L1057,209.6z"/>
			<path class="st2" d="M1055.2,137.6l-16.2,16h-34.8l-18.2-6.4c4.4-7,12.1-11.5,20-11.5h40.9
				C1049.9,135.7,1052.7,136.3,1055.2,137.6z"/>
			<polygon class="st1" points="1031.8,200.8 1029.2,219.3 1001.8,208.7 1004.4,190.2 			"/>
			<path class="st2" d="M1022.7,266l-2.5,17.9h-34.9c-11.2,0-19.1-9.2-17.5-20.4l2.9-20.6l17,6l-2.4,17.2H1022.7z"/>
			<path class="st1" d="M999.9,161.4l-6.2,44.4l-17-5.9l6.2-43.8c0-0.2,0.1-0.4,0.1-0.6L999.9,161.4z"/>
			<polygon class="st4" points="995.7,351.8 995.7,419.5 992.9,419.5 992.9,351.8 993.4,351.8 995.1,351.8 			"/>
			<polygon class="st2" points="992.4,214.8 988.9,239.7 971.8,233.8 975.3,208.9 			"/>
			<polygon class="st4" points="990.1,351.8 990.1,419.5 987.2,419.5 987.2,351.8 987.9,351.8 989.6,351.8 			"/>
			<polygon class="st4" points="984.4,351.8 984.4,419.5 981.5,419.5 981.5,351.8 982.2,351.8 983.9,351.8 			"/>
			<polygon class="st4" points="978.7,351.8 978.7,419.5 975.9,419.5 975.9,351.8 976.5,351.8 978.2,351.8 			"/>
			<polygon class="st4" points="973,351.8 973,419.5 970.2,419.5 970.2,351.8 971,351.8 972.7,351.8 			"/>
			<path class="st1" d="M967.1,142.7c2.7,3.7,3.8,8.4,3.1,13.4l-6.2,44.5l-17-5.9l5.2-37.2L967.1,142.7z"/>
			<polygon class="st4" points="967.4,351.8 967.4,419.5 964.5,419.5 964.5,351.8 965.1,351.8 966.8,351.8 			"/>
			<path class="st1" d="M962.8,209.6l-7.6,53.9c-1.5,10.4-10.5,19-20.7,20.3l11.2-80.1L962.8,209.6z"/>
			<polygon class="st4" points="961.7,351.8 961.7,419.5 958.9,419.5 958.9,351.8 959.6,351.8 961.3,351.8 			"/>
			<path class="st1" d="M961,137.6l-16.2,16H910l-18.2-6.4c4.4-7,12.1-11.5,20-11.5h40.9C955.7,135.7,958.5,136.3,961,137.6z"/>
			<polygon class="st4" points="956,351.8 956,419.5 953.2,419.5 953.2,351.8 953.7,351.8 955.4,351.8 			"/>
			<rect x="947.5" y="351.8" class="st4" width="2.8" height="67.7"/>
			<polygon class="st4" points="944.7,351.8 944.7,419.5 941.8,419.5 941.8,351.8 942.2,351.8 943.9,351.8 			"/>
			<polygon class="st4" points="939,351.8 939,419.5 936.2,419.5 936.2,351.8 936.7,351.8 938.4,351.8 			"/>
			<polygon class="st1" points="937.6,200.8 935,219.3 907.5,208.7 910.1,190.2 			"/>
			<polygon class="st4" points="933.3,351.8 933.3,419.5 930.5,419.5 930.5,351.8 931.2,351.8 932.9,351.8 			"/>
			<path class="st1" d="M928.4,266l-2.5,17.9H891c-11.3,0-19.1-9.2-17.5-20.4l2.9-20.6l17,6l-2.4,17.2H928.4z"/>
			<polygon class="st4" points="927.7,351.8 927.7,419.5 924.8,419.5 924.8,351.8 925.4,351.8 927.1,351.8 			"/>
			<polygon class="st4" points="922,351.8 922,419.5 919.2,419.5 919.2,351.8 919.7,351.8 921.4,351.8 			"/>
			<polygon class="st4" points="916.3,388.6 916.3,419.5 913.5,419.5 913.5,388.6 913.5,385.9 913.5,351.8 913.7,351.8 915.4,351.8 
				916.3,351.8 916.3,385.9 			"/>
			<polygon class="st4" points="910.7,388.6 910.7,419.5 907.8,419.5 907.8,388.6 907.8,385.9 907.8,351.8 908,351.8 909.7,351.8 
				910.7,351.8 910.7,385.9 			"/>
			<path class="st2" d="M905.6,161.4l-6.2,44.4l-17-5.9l6.2-43.8c0-0.2,0.1-0.4,0.1-0.6L905.6,161.4z"/>
			<polygon class="st2" points="898.1,214.8 894.6,239.7 877.6,233.8 881.1,208.9 			"/>
			<path class="st1" d="M873.2,142.7c2.5,3.6,3.5,8.1,2.9,12.9l-6.3,45.1l-17-5.9l5.2-37L873.2,142.7z"/>
			<path class="st1" d="M868.5,209.4L861,263c-1.5,10.3-10.3,19.1-20.7,20.6l11.3-80.1L868.5,209.4z"/>
			<path class="st1" d="M866.7,137.3l-16.4,16.2h-5.5l2.5-17.9H859C861.8,135.7,864.4,136.2,866.7,137.3z"/>
		</g>
		<g>
			<path class="st3" d="M992.9,419.7h9.9v-56.9h62.4c21.9,0,39.7-17.8,39.7-39.7V96.4c0-21.9-17.8-39.7-39.7-39.7H838.4
				c-21.9,0-39.7,17.8-39.7,39.7v226.8c0,21.9,17.8,39.7,39.7,39.7h62.4v56.9h7.1h5.7h5.7h5.7h5.7h5.7h5.7h5.7h5.7h5.7h5.7h5.7h5.7
				h5.7h5.7H992.9z"/>
		</g>
	</g>
</g>
<g id="display_x5F_05">
	<g id="XMLID_4_">
		<g>
			<path class="st0" d="M1446.7,96.4v226.8c0,15.7-12.7,28.4-28.4,28.4h-69.4h-0.6h-1.7h-0.5h-2.8h-0.5h-1.7h-0.7h-2.8h-0.5h-1.7
				h-0.6h-2.8h-0.5h-1.7h-0.6h-2.8h-0.4h-1.7h-0.7h-2.8h-0.5h-1.7h-0.6h-2.8h-0.4h-1.7h-0.7h-2.8h-0.6h-1.7h-0.6h-2.8h-0.5h-1.6
				h-0.7h-2.8h-0.8h-1.7h-0.3h-2.8h-0.6h-1.7h-0.6h-2.8h-0.4h-1.7h-0.7h-2.8h-0.6h-1.7h-0.5h-2.8h-0.6h-1.7h-0.5h-2.8h-0.9h-1.7
				h-0.2h-2.8h-0.9h-1.7h-0.2h-69.4c-15.7,0-28.4-12.7-28.4-28.4V96.4c0-15.7,12.7-28.3,28.4-28.3h226.8
				C1434,68.1,1446.7,80.8,1446.7,96.4z M1418.3,201.2v-42.3c0-6.5-2.4-12.9-7-18.5c-0.4-0.5-0.9-1-1.4-1.5l-15.8,31.2v34
				c2,0.8,4,2,5.9,3.2c2.4,1.5,3.1,2.1,4.7,3.3l1.5,1.1c0.8,0.6,1.6,1.3,2.4,2l0.2,0.1c0.5,0.4,1,0.9,1.5,1.2c0.3,0.3,1.2,1,1.8,1.5
				h0.6c0.5-0.8,1.3-2.1,1.6-2.6c1.3-2.2,2.3-4.4,2.9-6.5C1417.9,205.5,1418.3,203.3,1418.3,201.2z M1418.3,289v-48.8
				c-0.1-2.1-0.4-4.1-1.1-6.1c-0.6-2.1-1.6-4.2-2.9-6.4c-0.1-0.2-0.4-0.6-0.6-1.1c-0.3-0.5-0.6-1-0.8-1.5h-0.8
				c-0.6,0.5-1.3,1.1-1.6,1.4c-0.4,0.4-0.9,0.7-1.4,1.2c-0.7,0.6-1.4,1.2-2.2,1.8c-0.9,0.6-1.6,1.2-2.3,1.7
				c-1.5,1.2-2.7,2.1-4.6,3.1c-0.7,0.4-1.4,0.8-2.1,1.2c-1.2,0.8-2.5,1.5-3.8,2.1v39.9l16.6,31.5
				C1415.6,303.5,1418.3,296.4,1418.3,289z M1403,314.3l-13.2-24.9c-0.9,0.6-2,1.2-3,1.5c-2.1,0.7-3.8,1.1-5.6,1.1h-22.4
				c-8.1,0-14.8-6.1-15.8-14.1l-0.4-3.8l-24.6,7v4.5c0,16.8,13.7,30.4,30.5,30.4h42.8c4.1,0,7.9-0.6,11.4-1.7
				C1402.7,314.4,1402.9,314.3,1403,314.3z M1389.6,158.4l12.3-24.3c-4.1-1.6-7.3-2.3-10.7-2.3h-42.8c-15.4,0-28.4,11.5-30.2,26.8
				c-0.1,0.5-0.1,1.1-0.1,1.6v2.7l24.1,7.3v-1.5c0-1.4,0.3-2.8,0.9-3.9c2.8-5.4,8.4-8.8,14.5-8.8h23.6c2.1,0,4.2,0.5,6.7,1.6
				C1388.5,157.8,1389.1,158.1,1389.6,158.4z M1402.5,220.9c-1.1-1-2.4-1.9-3.7-2.9c-2.2-1.6-4.3-3-6.4-4.1
				c-2.4-1.3-4.5-2.2-6.6-2.9c-2.2-0.7-4.4-1-6.4-1h-22.6c-2,0-4.2,0.3-6.5,1c-2.1,0.6-4.2,1.6-6.6,2.9c-2.1,1.1-4.2,2.5-6.4,4.1
				c-1.3,1-2.6,2-3.7,2.9c1.1,0.9,2.3,1.9,3.7,2.9c2.3,1.7,4.4,3,6.4,4.1c2.3,1.3,4.5,2.2,6.6,2.9c2.2,0.7,4.4,1,6.4,1h22.6
				c2,0,4.2-0.4,6.5-1.1c2.1-0.6,4.2-1.6,6.6-2.8c2.1-1.2,4.2-2.5,6.4-4.1C1400.2,222.8,1401.4,221.8,1402.5,220.9z M1342.2,264.6
				v-27.1c-1.1-0.5-2-0.9-2.9-1.4c-2.4-1.3-4.8-2.9-7.4-4.8c-1.5-1.1-2.9-2.2-4.2-3.3l-3.4-2.9h-1.5c-1.4,2.1-2.5,4.5-3.3,7.1
				c-1,3.1-1.5,5.8-1.5,8.3v30.9L1342.2,264.6z M1342.2,204.2v-24.5l-24.2-7.3v30.4c0,2,0.4,4.1,1.1,6.1c0.7,2.1,1.6,4.2,2.9,6.4
				c0.2,0.4,0.5,0.9,0.8,1.3h1.5l3.4-2.9c1.3-1.1,2.7-2.2,4.2-3.3c2.6-1.9,5-3.5,7.4-4.8C1340.3,205.1,1341.2,204.6,1342.2,204.2z
				 M1329.3,115.5c1.6-0.6,2-1.6,1-3.1c-2.1-3.2-3.3-6.8-3.5-10.6c0-0.5-0.3-1.2-0.7-1.4c-0.3-0.2-1,0.2-1.4,0.4
				c-3.8,3-8.3,4.3-13,5.2c0.1-0.5,0.1-1,0.2-1.4c0.3-2.5,0-4.9-1.1-7.2c-0.2-0.4-0.6-0.9-0.9-0.8c-0.4,0-0.8,0.4-1,0.8
				c-0.4,0.7-0.5,1.4-0.8,2.1h-6.4c-0.3-0.8-0.6-1.6-0.9-2.3c-0.2-0.3-0.6-0.7-0.9-0.6c-0.3,0-0.7,0.4-0.8,0.7
				c-0.4,1.1-0.9,2.1-1,3.3c-0.2,1.7,0,3.5,0,5.4c-4.8-0.9-9.4-2.3-13.2-5.4c-0.9-0.7-1.7-0.3-1.8,0.9c-0.2,4.1-1.4,7.8-3.6,11.2
				c-0.7,1.1-0.4,2.2,0.9,2.7c0.9,0.4,1.9,0.7,2.8,1.2c2.9,1.6,5.2,3.8,6.1,7.2c0.4,1.3,0.4,1.4,1.8,1.3c4.9-0.5,8.9,1.2,12.2,4.8
				c1.3,1.4,2.3,1.5,3.6,0c1.4-1.6,3-2.8,4.9-3.7c2.3-1.1,4.7-1.5,7.2-1.2c1.5,0.2,1.5,0.1,1.9-1.3c0.3-1,0.7-1.9,1.2-2.7
				C1323.8,118.3,1326.3,116.6,1329.3,115.5z M1291.9,201.2v-42.3c0-6.5-2.4-12.9-7-18.5c-0.4-0.5-0.9-1-1.4-1.5l-15.8,31.2v34
				c2,0.8,4,2,5.9,3.2c2.4,1.5,3.1,2.1,4.7,3.3l1.5,1.1c0.8,0.6,1.6,1.3,2.4,2l0.2,0.1c0.5,0.4,1,0.9,1.5,1.2c0.3,0.3,1.2,1,1.8,1.5
				h0.6c0.5-0.8,1.3-2.1,1.6-2.6c1.3-2.2,2.3-4.4,2.9-6.5C1291.5,205.5,1291.9,203.3,1291.9,201.2z M1291.9,289v-48.8
				c0-2.1-0.4-4.1-1.1-6.1c-0.7-2.1-1.6-4.2-2.9-6.4c-0.1-0.2-0.4-0.6-0.6-1.1c-0.3-0.5-0.6-1-0.8-1.5h-0.8
				c-0.6,0.5-1.3,1.1-1.6,1.4c-0.4,0.4-0.9,0.7-1.4,1.2c-0.7,0.6-1.4,1.2-2.2,1.8c-0.9,0.6-1.6,1.2-2.3,1.7
				c-1.5,1.2-2.7,2.1-4.6,3.1c-0.7,0.4-1.4,0.8-2.1,1.2c-1.3,0.8-2.6,1.5-3.9,2.1v39.9l16.6,31.5
				C1289.2,303.5,1291.9,296.4,1291.9,289z M1276.7,314.3l-13.2-24.9c-0.9,0.6-2,1.2-3,1.5c-2.1,0.7-3.8,1.1-5.6,1.1h-22.4
				c-8.1,0-14.8-6.1-15.8-14.1l-0.4-3.8l-24.6,7v4.5c0,16.8,13.7,30.4,30.4,30.4h42.8c4.1,0,7.9-0.6,11.4-1.7
				C1276.4,314.4,1276.5,314.3,1276.7,314.3z M1263.2,158.4l12.3-24.3c-4.1-1.6-7.3-2.3-10.7-2.3h-42.8c-15.4,0-28.4,11.5-30.2,26.8
				c-0.1,0.5-0.1,1.1-0.1,1.6v2.7l24.1,7.3v-1.5c0-1.4,0.3-2.8,0.9-3.9c2.9-5.4,8.4-8.8,14.5-8.8h23.6c2.1,0,4.1,0.5,6.7,1.6
				C1262.1,157.8,1262.7,158.1,1263.2,158.4z M1276.2,220.9c-1.1-1-2.4-1.9-3.7-2.9c-2.2-1.6-4.3-3-6.4-4.1
				c-2.4-1.3-4.5-2.2-6.6-2.9c-2.2-0.7-4.4-1-6.4-1h-22.6c-2,0-4.2,0.3-6.5,1c-2.1,0.6-4.2,1.6-6.6,2.9c-2.1,1.1-4.2,2.5-6.4,4.1
				c-1.3,1-2.6,2-3.7,2.9c1.1,0.9,2.3,1.9,3.7,2.9c2.3,1.7,4.4,3,6.4,4.1c2.3,1.3,4.5,2.2,6.6,2.9c2.2,0.7,4.4,1,6.4,1h22.6
				c2,0,4.2-0.4,6.5-1.1c2.1-0.6,4.2-1.6,6.6-2.8c2.1-1.2,4.2-2.5,6.4-4.1C1273.8,222.8,1275,221.8,1276.2,220.9z M1215.8,264.6
				v-27.1c-1.1-0.5-2-0.9-2.9-1.4c-2.4-1.3-4.8-2.9-7.4-4.8c-1.5-1.1-2.9-2.2-4.2-3.3l-3.4-2.9h-1.5c-1.4,2.1-2.5,4.5-3.3,7.1
				c-1,3.1-1.5,5.8-1.5,8.3v30.9L1215.8,264.6z M1215.8,204.2v-24.5l-24.2-7.3v30.4c0,2,0.4,4.1,1.1,6.1c0.7,2.1,1.6,4.2,2.9,6.4
				c0.2,0.4,0.5,0.9,0.8,1.3h1.5l3.4-2.9c1.3-1.1,2.7-2.2,4.2-3.3c2.6-1.9,5-3.5,7.4-4.8C1213.9,205.1,1214.9,204.6,1215.8,204.2z"
				/>
			<path class="st1" d="M1418.3,158.9v42.3c0,2.1-0.4,4.2-1.1,6.3c-0.7,2.1-1.7,4.3-2.9,6.5c-0.3,0.5-1.1,1.8-1.6,2.6h-0.6
				c-0.6-0.5-1.5-1.3-1.8-1.5c-0.5-0.4-1-0.8-1.5-1.2l-0.2-0.1c-0.8-0.7-1.7-1.4-2.4-2l-1.5-1.1c-1.6-1.2-2.4-1.8-4.7-3.3
				c-1.9-1.2-3.8-2.4-5.9-3.2v-34l15.8-31.2c0.5,0.5,1,1,1.4,1.5C1415.9,146,1418.3,152.4,1418.3,158.9z"/>
			<path class="st2" d="M1418.3,240.3V289c0,7.3-2.7,14.5-7.6,20l-16.6-31.5v-39.9c1.3-0.5,2.6-1.3,3.8-2.1c0.7-0.4,1.4-0.8,2.1-1.2
				c1.9-1,3.1-2,4.6-3.1c0.7-0.5,1.4-1.1,2.3-1.7c0.7-0.6,1.5-1.2,2.2-1.8c0.6-0.5,1-0.9,1.4-1.2c0.3-0.2,1.1-0.9,1.6-1.4h0.8
				c0.2,0.4,0.5,1,0.8,1.5c0.3,0.5,0.5,0.9,0.6,1.1c1.3,2.2,2.3,4.3,2.9,6.4C1417.9,236.1,1418.2,238.2,1418.3,240.3z"/>
			<path class="st1" d="M1389.8,289.3l13.2,24.9c-0.2,0.1-0.3,0.1-0.5,0.2c-3.4,1.1-7.2,1.7-11.4,1.7h-42.8
				c-16.8,0-30.5-13.7-30.5-30.4v-4.5l24.6-7l0.4,3.8c0.9,8,7.7,14.1,15.8,14.1h22.4c1.8,0,3.5-0.3,5.6-1.1
				C1387.9,290.5,1388.9,290,1389.8,289.3z"/>
			<path class="st1" d="M1401.9,134.1l-12.3,24.3c-0.5-0.3-1-0.6-1.6-0.8c-2.6-1.1-4.6-1.6-6.7-1.6h-23.6c-6.1,0-11.6,3.4-14.5,8.8
				c-0.6,1.2-0.9,2.5-0.9,3.9v1.5l-24.1-7.3v-2.7c0-0.5,0-1.1,0.1-1.6c1.8-15.3,14.8-26.8,30.2-26.8h42.8
				C1394.6,131.9,1397.8,132.5,1401.9,134.1z"/>
			<path class="st1" d="M1398.9,218c1.3,1,2.5,1.9,3.7,2.9c-1.1,0.9-2.3,1.9-3.7,2.9c-2.2,1.6-4.3,3-6.4,4.1
				c-2.3,1.3-4.5,2.2-6.6,2.8c-2.3,0.7-4.4,1.1-6.5,1.1h-22.6c-2.1,0-4.2-0.4-6.4-1c-2.1-0.7-4.3-1.6-6.6-2.9
				c-2-1.1-4.1-2.5-6.4-4.1c-1.3-1-2.6-2-3.7-2.9c1.1-0.9,2.4-1.9,3.7-2.9c2.2-1.6,4.3-3,6.4-4.1c2.3-1.3,4.5-2.2,6.6-2.9
				c2.2-0.7,4.4-1,6.5-1h22.6c2.1,0,4.2,0.3,6.4,1c2.1,0.6,4.2,1.6,6.6,2.9C1394.5,215,1396.6,216.3,1398.9,218z"/>
			<polygon class="st4" points="1348.9,351.5 1348.9,419.7 1346.1,419.7 1346.1,351.5 1346.6,351.5 1348.3,351.5 			"/>
			<polygon class="st4" points="1343.2,351.5 1343.2,419.7 1340.4,419.7 1340.4,351.5 1341.1,351.5 1342.8,351.5 			"/>
			<path class="st1" d="M1342.2,237.5v27.1l-24.2,6.9v-30.9c0-2.5,0.5-5.2,1.5-8.3c0.8-2.6,1.9-4.9,3.3-7.1h1.5l3.4,2.9
				c1.3,1.1,2.7,2.2,4.2,3.3c2.6,1.9,5,3.5,7.4,4.8C1340.2,236.6,1341.1,237,1342.2,237.5z"/>
			<path class="st2" d="M1342.2,179.7v24.5c-0.9,0.4-1.9,0.9-2.8,1.4c-2.5,1.3-4.9,2.9-7.4,4.8c-1.5,1.1-2.9,2.2-4.2,3.3l-3.4,2.9
				h-1.5c-0.3-0.4-0.5-0.9-0.8-1.3c-1.3-2.2-2.3-4.3-2.9-6.4c-0.7-2-1-4-1.1-6.1v-30.4L1342.2,179.7z"/>
			<polygon class="st4" points="1337.6,351.5 1337.6,419.7 1334.7,419.7 1334.7,351.5 1335.4,351.5 1337.1,351.5 			"/>
			<polygon class="st4" points="1331.9,351.5 1331.9,419.7 1329.1,419.7 1329.1,351.5 1329.7,351.5 1331.4,351.5 			"/>
			<path class="st1" d="M1330.4,112.4c0.9,1.4,0.6,2.5-1,3.1c-3,1.1-5.5,2.8-7.3,5.5c-0.5,0.8-0.9,1.8-1.2,2.7
				c-0.5,1.4-0.4,1.5-1.9,1.3c-2.5-0.3-4.9,0.1-7.2,1.2c-1.9,0.9-3.5,2.1-4.9,3.7c-1.3,1.4-2.3,1.4-3.6,0c-3.3-3.6-7.3-5.3-12.2-4.8
				c-1.4,0.1-1.4,0.1-1.8-1.3c-0.9-3.3-3.2-5.5-6.1-7.2c-0.9-0.5-1.8-0.8-2.8-1.2c-1.2-0.5-1.6-1.6-0.9-2.7
				c2.2-3.4,3.5-7.1,3.6-11.2c0-1.2,0.9-1.6,1.8-0.9c3.8,3.1,8.4,4.5,13.2,5.4c0-1.9-0.1-3.7,0-5.4c0.1-1.1,0.6-2.2,1-3.3
				c0.1-0.3,0.5-0.7,0.8-0.7c0.3,0,0.7,0.3,0.9,0.6c0.3,0.7,0.6,1.4,0.9,2.3h6.4c0.3-0.7,0.4-1.5,0.8-2.1c0.2-0.4,0.7-0.7,1-0.8
				c0.3,0,0.7,0.5,0.9,0.8c1.1,2.3,1.4,4.7,1.1,7.2c-0.1,0.4-0.1,0.8-0.2,1.4c4.8-0.9,9.2-2.2,13-5.2c0.4-0.3,1.1-0.6,1.4-0.4
				c0.4,0.2,0.7,0.9,0.7,1.4C1327.1,105.6,1328.3,109.2,1330.4,112.4z"/>
			<polygon class="st4" points="1326.2,351.5 1326.2,419.7 1323.4,419.7 1323.4,351.5 1324.1,351.5 1325.9,351.5 			"/>
			<polygon class="st4" points="1320.6,351.5 1320.6,419.7 1317.7,419.7 1317.7,351.5 1318.3,351.5 1320,351.5 			"/>
			<polygon class="st4" points="1314.9,351.5 1314.9,419.7 1312,419.7 1312,351.5 1312.8,351.5 1314.5,351.5 			"/>
			<polygon class="st4" points="1309.2,351.5 1309.2,419.7 1306.4,419.7 1306.4,351.5 1306.9,351.5 1308.6,351.5 			"/>
			<polygon class="st4" points="1303.5,351.5 1303.5,419.7 1300.7,419.7 1300.7,351.5 1301.4,351.5 1303,351.5 			"/>
			<polygon class="st4" points="1297.9,351.5 1297.9,419.7 1295,419.7 1295,351.5 1295.4,351.5 1297.1,351.5 			"/>
			<polygon class="st4" points="1292.2,351.5 1292.2,419.7 1289.4,419.7 1289.4,351.5 1289.9,351.5 1291.6,351.5 			"/>
			<path class="st1" d="M1291.9,158.9v42.3c0,2.1-0.4,4.2-1.1,6.3c-0.7,2.1-1.7,4.3-2.9,6.5c-0.3,0.5-1.1,1.8-1.6,2.6h-0.6
				c-0.6-0.5-1.5-1.3-1.8-1.5c-0.5-0.4-1-0.8-1.5-1.2l-0.2-0.1c-0.8-0.7-1.7-1.4-2.4-2l-1.5-1.1c-1.6-1.2-2.4-1.8-4.7-3.3
				c-1.9-1.2-3.8-2.4-5.9-3.2v-34l15.8-31.2c0.5,0.5,1,1,1.4,1.5C1289.5,146,1291.9,152.4,1291.9,158.9z"/>
			<path class="st1" d="M1291.9,240.3V289c0,7.3-2.7,14.5-7.6,20l-16.6-31.5v-39.9c1.3-0.5,2.6-1.3,3.9-2.1c0.7-0.4,1.4-0.8,2.1-1.2
				c1.9-1,3.1-2,4.6-3.1c0.7-0.5,1.4-1.1,2.3-1.7c0.7-0.6,1.5-1.2,2.2-1.8c0.6-0.5,1-0.9,1.4-1.2c0.3-0.2,1.1-0.9,1.6-1.4h0.8
				c0.2,0.4,0.5,1,0.8,1.5c0.3,0.5,0.5,0.9,0.6,1.1c1.3,2.2,2.3,4.3,2.9,6.4C1291.5,236.1,1291.9,238.2,1291.9,240.3z"/>
			<polygon class="st4" points="1286.5,351.5 1286.5,419.7 1283.7,419.7 1283.7,351.5 1284.4,351.5 1286.1,351.5 			"/>
			<polygon class="st4" points="1280.9,351.5 1280.9,419.7 1278,419.7 1278,351.5 1278.6,351.5 1280.3,351.5 			"/>
			<path class="st2" d="M1263.5,289.3l13.2,24.9c-0.2,0.1-0.3,0.1-0.5,0.2c-3.4,1.1-7.2,1.7-11.4,1.7h-42.8
				c-16.8,0-30.4-13.7-30.4-30.4v-4.5l24.6-7l0.4,3.8c0.9,8,7.7,14.1,15.8,14.1h22.4c1.8,0,3.5-0.3,5.6-1.1
				C1261.5,290.5,1262.5,290,1263.5,289.3z"/>
			<path class="st2" d="M1275.5,134.1l-12.3,24.3c-0.5-0.3-1-0.6-1.6-0.8c-2.6-1.1-4.6-1.6-6.7-1.6h-23.6c-6.1,0-11.6,3.4-14.5,8.8
				c-0.6,1.2-0.9,2.5-0.9,3.9v1.5l-24.1-7.3v-2.7c0-0.5,0-1.1,0.1-1.6c1.9-15.3,14.8-26.8,30.2-26.8h42.8
				C1268.3,131.9,1271.5,132.5,1275.5,134.1z"/>
			<polygon class="st4" points="1275.2,351.5 1275.2,419.7 1272.3,419.7 1272.3,351.5 1272.9,351.5 1274.6,351.5 			"/>
			<path class="st1" d="M1272.5,218c1.3,1,2.5,1.9,3.7,2.9c-1.1,0.9-2.3,1.9-3.7,2.9c-2.2,1.6-4.3,3-6.4,4.1
				c-2.3,1.3-4.5,2.2-6.6,2.8c-2.3,0.7-4.4,1.1-6.5,1.1h-22.6c-2.1,0-4.2-0.4-6.4-1c-2.1-0.7-4.3-1.6-6.6-2.9
				c-2-1.1-4.1-2.5-6.4-4.1c-1.3-1-2.6-2-3.7-2.9c1.1-0.9,2.4-1.9,3.7-2.9c2.2-1.6,4.3-3,6.4-4.1c2.3-1.3,4.5-2.2,6.6-2.9
				c2.2-0.7,4.4-1,6.5-1h22.6c2.1,0,4.2,0.3,6.4,1c2.1,0.6,4.2,1.6,6.6,2.9C1268.2,215,1270.2,216.3,1272.5,218z"/>
			<polygon class="st4" points="1269.5,404.5 1269.5,419.7 1266.7,419.7 1266.7,404.5 1266.7,401.8 1266.7,351.5 1266.9,351.5 
				1268.6,351.5 1269.5,351.5 1269.5,401.8 			"/>
			<polygon class="st4" points="1263.8,404.5 1263.8,419.7 1261,419.7 1261,404.5 1261,401.8 1261,351.5 1261.2,351.5 1262.9,351.5 
				1263.8,351.5 1263.8,401.8 			"/>
			<path class="st2" d="M1215.8,237.5v27.1l-24.2,6.9v-30.9c0-2.5,0.5-5.2,1.5-8.3c0.8-2.6,1.9-4.9,3.3-7.1h1.5l3.4,2.9
				c1.3,1.1,2.7,2.2,4.2,3.3c2.6,1.9,5,3.5,7.4,4.8C1213.8,236.6,1214.7,237,1215.8,237.5z"/>
			<path class="st1" d="M1215.8,179.7v24.5c-0.9,0.4-1.9,0.9-2.8,1.4c-2.4,1.3-4.9,2.9-7.4,4.8c-1.5,1.1-2.9,2.2-4.2,3.3l-3.4,2.9
				h-1.5c-0.3-0.4-0.5-0.9-0.8-1.3c-1.3-2.2-2.3-4.3-2.9-6.4c-0.7-2-1-4-1.1-6.1v-30.4L1215.8,179.7z"/>
		</g>
		<g>
			<line class="st3" x1="1343.2" y1="419.7" x2="1346.1" y2="419.7"/>
			<line class="st3" x1="1331.9" y1="419.7" x2="1334.7" y2="419.7"/>
			<line class="st3" x1="1326.2" y1="419.7" x2="1329.1" y2="419.7"/>
			<line class="st3" x1="1320.6" y1="419.7" x2="1323.4" y2="419.7"/>
			<line class="st3" x1="1314.9" y1="419.7" x2="1317.7" y2="419.7"/>
			<line class="st3" x1="1309.2" y1="419.7" x2="1312" y2="419.7"/>
			<line class="st3" x1="1303.5" y1="419.7" x2="1306.4" y2="419.7"/>
			<line class="st3" x1="1297.9" y1="419.7" x2="1300.7" y2="419.7"/>
			<line class="st3" x1="1292.2" y1="419.7" x2="1295" y2="419.7"/>
			<line class="st3" x1="1286.5" y1="419.7" x2="1289.4" y2="419.7"/>
			<line class="st3" x1="1280.9" y1="419.7" x2="1283.7" y2="419.7"/>
			<line class="st3" x1="1275.2" y1="419.7" x2="1278" y2="419.7"/>
			<line class="st3" x1="1269.5" y1="419.7" x2="1272.3" y2="419.7"/>
			<line class="st3" x1="1263.8" y1="419.7" x2="1266.7" y2="419.7"/>
			<path class="st3" d="M1348.9,419.7h7.1v-56.8h62.4c21.9,0,39.7-17.8,39.7-39.7V96.4c0-21.9-17.8-39.7-39.7-39.7h-226.8
				c-21.9,0-39.7,17.8-39.7,39.7v226.8c0,21.9,17.8,39.7,39.7,39.7h62.4v56.8h7.1"/>
			<polyline class="st3" points="1337.6,419.7 1340.4,419.7 1340.4,419.7 			"/>
		</g>
	</g>
</g>
</svg>
